<svg class="d-none" version="1.1" xmlns="http://www.w3.org/2000/svg" xmlns:xlink="http://www.w3.org/1999/xlink">
    <defs>
        <symbol id="home" viewBox="0 0 24 24">
            <g fill="none" stroke="currentColor" stroke-linecap="round" stroke-linejoin="round" stroke-width="1.5" color="currentColor">
                <path d="M12 17h.009M20 8.5v5c0 3.771 0 5.657-1.172 6.828S15.771 21.5 12 21.5s-5.657 0-6.828-1.172S4 17.271 4 13.5v-5"></path>
                <path d="m22 10.5l-4.343-4.165C14.99 3.778 13.657 2.5 12 2.5S9.01 3.778 6.343 6.335L2 10.5"></path>
            </g>
        </symbol>
        <symbol id="note" viewBox="0 0 24 24">
            <g fill="none" stroke="currentColor" stroke-linecap="round" stroke-linejoin="round" stroke-width="1.5" color="currentColor">
                <path d="M5.143 14A7.8 7.8 0 0 1 4 9.919C4 5.545 7.582 2 12 2s8 3.545 8 7.919A7.8 7.8 0 0 1 18.857 14"></path>
                <path d="M14 10c-.613.643-1.289 1-2 1s-1.387-.357-2-1m-2.617 7.098c-.092-.276-.138-.415-.133-.527a.6.6 0 0 1 .382-.53c.104-.041.25-.041.54-.041h7.656c.291 0 .436 0 .54.04a.6.6 0 0 1 .382.531c.005.112-.041.25-.133.527c-.17.511-.255.767-.386.974a2 2 0 0 1-1.2.869c-.238.059-.506.059-1.043.059h-3.976c-.537 0-.806 0-1.043-.06a2 2 0 0 1-1.2-.868c-.131-.207-.216-.463-.386-.974M15 19l-.13.647c-.14.707-.211 1.06-.37 1.34a2 2 0 0 1-1.113.912C13.082 22 12.72 22 12 22s-1.082 0-1.387-.1a2 2 0 0 1-1.113-.913c-.159-.28-.23-.633-.37-1.34L9 19m3-3.5V11"></path>
            </g>
        </symbol>
        <symbol id="about" viewBox="0 0 24 24">
            <g fill="none" stroke="currentColor" stroke-linecap="round" stroke-linejoin="round" stroke-width="1.5" color="currentColor">
                <path d="M15.153 4.284c-1.174-.436-1.695-2.18-3.033-2.28a2 2 0 0 0-.24 0c-1.337.1-1.858 1.844-3.032 2.28c-1.243.461-2.943-.484-3.995.568c-1.013 1.013-.117 2.778-.569 3.995c-.461 1.245-2.393 1.76-2.28 3.273c.101 1.337 1.845 1.859 2.28 3.033c.452 1.217-.444 2.982.569 3.995c1.052 1.052 2.752.107 3.995.568c1.173.436 1.695 2.18 3.033 2.28q.12.009.239 0c1.338-.1 1.86-1.844 3.033-2.28c1.217-.451 2.982.445 3.995-.568c1.087-1.087.04-2.85.614-4.106c.53-1.156 2.344-1.698 2.234-3.161c-.1-1.338-1.843-1.86-2.28-3.034c-.46-1.243.484-2.942-.568-3.995s-2.752-.107-3.995-.568"></path>
                <path d="M12.242 16v-4c0-.471 0-.707-.146-.854c-.147-.146-.382-.146-.854-.146m.75-3h.01"></path>
            </g>
        </symbol>
        <symbol id="recommendations" viewBox="0 0 24 24">
            <g fill="none" stroke="currentColor" stroke-linecap="round" stroke-linejoin="round" stroke-width="1.5" color="currentColor">
                <path d="M15 2.458A10 10 0 0 0 12 2C6.477 2 2 6.477 2 12s4.477 10 10 10s10-4.477 10-10a10 10 0 0 0-.458-3"></path>
                <path d="M8.5 9.5L12 13l9-10"></path>
            </g>
        </symbol>
        <symbol id="categories" viewBox="0 0 24 24">
            <path fill="none" stroke="currentColor" stroke-linecap="round" stroke-linejoin="round" stroke-width="1.5" d="M22 18c0 1.4 0 2.1-.273 2.635a2.5 2.5 0 0 1-1.092 1.092C20.1 22 19.4 22 18 22s-2.1 0-2.635-.273a2.5 2.5 0 0 1-1.092-1.092C14 20.1 14 19.4 14 18s0-2.1.273-2.635a2.5 2.5 0 0 1 1.092-1.092C15.9 14 16.6 14 18 14s2.1 0 2.635.273a2.5 2.5 0 0 1 1.092 1.092C22 15.9 22 16.6 22 18m0-8c0 1.4 0 2.1-.273 2.635a2.5 2.5 0 0 1-1.092 1.092C20.1 14 19.4 14 18 14s-2.1 0-2.635-.273a2.5 2.5 0 0 1-1.092-1.092C14 12.1 14 11.4 14 10s0-2.1.273-2.635a2.5 2.5 0 0 1 1.092-1.093C15.9 6 16.6 6 18 6s2.1 0 2.635.272a2.5 2.5 0 0 1 1.092 1.093C22 7.9 22 8.6 22 10m-8 8c0 1.4 0 2.1-.273 2.635a2.5 2.5 0 0 1-1.092 1.092C12.1 22 11.4 22 10 22s-2.1 0-2.635-.273a2.5 2.5 0 0 1-1.093-1.092C6 20.1 6 19.4 6 18s0-2.1.272-2.635a2.5 2.5 0 0 1 1.093-1.092C7.9 14 8.6 14 10 14s2.1 0 2.635.273a2.5 2.5 0 0 1 1.092 1.092C14 15.9 14 16.6 14 18M10 6c0 1.4 0 2.1-.272 2.635a2.5 2.5 0 0 1-1.093 1.093C8.1 10 7.4 10 6 10s-2.1 0-2.635-.272a2.5 2.5 0 0 1-1.093-1.093C2 8.1 2 7.4 2 6s0-2.1.272-2.635a2.5 2.5 0 0 1 1.093-1.093C3.9 2 4.6 2 6 2s2.1 0 2.635.272a2.5 2.5 0 0 1 1.093 1.093C10 3.9 10 4.6 10 6" color="currentColor"></path>
        </symbol>
        <symbol id="printables" viewBox="0 0 24 24">
            <g fill="none" stroke="currentColor" stroke-linecap="round" stroke-linejoin="round" stroke-width="1.5" color="currentColor">
                <path d="M22 12c0-5.523-4.477-10-10-10S2 6.477 2 12s4.477 10 10 10c.842 0 2 .116 2-1c0-.609-.317-1.079-.631-1.546c-.46-.683-.917-1.359-.369-2.454c.667-1.333 1.778-1.333 3.482-1.333c.851 0 1.851 0 3.018-.167c2.101-.3 2.5-1.592 2.5-3.5M7 15.002L7.009 15"></path>
                <circle cx="9.5" cy="8.5" r="1.5"></circle>
                <circle cx="16.5" cy="9.5" r="1.5"></circle>
            </g>
        </symbol>
        <symbol id="explore" viewBox="0 0 24 24">
            <g fill="none" stroke="currentColor" stroke-linecap="round" stroke-linejoin="round" stroke-width="1.5" color="currentColor">
                <path d="M17 12a5 5 0 1 1-5-5"></path>
                <path d="M14 2.2q-.97-.198-2-.2C6.477 2 2 6.477 2 12s4.477 10 10 10s10-4.477 10-10q-.002-1.03-.2-2"></path>
                <path d="m12.03 11.962l4.553-4.553m3.157-3.064l-.553-1.988a.48.48 0 0 0-.761-.24c-1.436 1.173-3 2.754-1.723 5.247c2.574 1.2 4.044-.418 5.17-1.779a.486.486 0 0 0-.248-.775z"></path>
            </g>
        </symbol>
        <symbol id="authors" viewBox="0 0 24 24">
            <g fill="none" stroke="currentColor" stroke-linecap="round" stroke-linejoin="round" stroke-width="1.5" color="currentColor">
                <path d="M5.076 17C4.089 4.545 12.912 1.012 19.973 2.224c.286 4.128-1.734 5.673-5.58 6.387c.742.776 2.055 1.753 1.913 2.974c-.1.868-.69 1.295-1.87 2.147C11.85 15.6 8.854 16.78 5.076 17"></path>
                <path d="M4 22c0-6.5 3.848-9.818 6.5-12"></path>
            </g>
        </symbol>
        <symbol id="recipes" viewBox="0 0 24 24">
            <path fill="none" stroke="currentColor" stroke-linecap="round" stroke-linejoin="round" stroke-width="1.5" d="M18 13a4 4 0 1 0-2.225-7.325M6 13a4 4 0 1 1 2.225-7.325m7.55 0a4.002 4.002 0 0 0-7.55 0m7.55 0A4 4 0 0 1 15.874 8m-6.41-1a4 4 0 0 0-1.24-1.325M6 17.5c1.599-.622 3.7-1 6-1s4.401.378 6 1M5 21c1.866-.622 4.316-1 7-1s5.134.378 7 1m-1-9v8M6 12v8" color="currentColor"></path>
        </symbol>
        <symbol id="articles" viewBox="0 0 24 24">
            <g fill="none" stroke="currentColor" stroke-linecap="round" stroke-linejoin="round" stroke-width="1.5" color="currentColor">
                <path d="M15 2.5V4c0 1.414 0 2.121.44 2.56C15.878 7 16.585 7 18 7h1.5"></path>
                <path d="M4 16V8c0-2.828 0-4.243.879-5.121C5.757 2 7.172 2 10 2h4.172c.408 0 .613 0 .797.076c.183.076.328.22.617.51l3.828 3.828c.29.29.434.434.51.618c.076.183.076.388.076.796V16c0 2.828 0 4.243-.879 5.121C18.243 22 16.828 22 14 22h-4c-2.828 0-4.243 0-5.121-.879C4 20.243 4 18.828 4 16m4-5h8m-8 3h8m-8 3h4.17"></path>
            </g>
        </symbol>
        <symbol id="faq" viewBox="0 0 24 24">
            <g fill="none" stroke="currentColor" stroke-linecap="round" stroke-linejoin="round" stroke-width="1.5" color="currentColor">
                <path d="M22 11.567c0 5.283-4.478 9.566-10 9.566q-.977.001-1.935-.178c-.459-.087-.688-.13-.848-.105c-.16.024-.388.145-.842.386a6.5 6.5 0 0 1-4.224.657a5.3 5.3 0 0 0 1.087-2.348c.1-.53-.148-1.045-.52-1.422C3.034 16.411 2 14.105 2 11.567C2 6.284 6.478 2 12 2s10 4.284 10 9.567"></path>
                <path d="M10 9.846C10 8.826 10.895 8 12 8s2 .827 2 1.846c0 .368-.116.71-.317.998C13.085 11.7 12 12.519 12 13.539V14m0 2.5h.009"></path>
            </g>
        </symbol>
        <symbol id="privacy" viewBox="0 0 24 24">
            <g fill="none" stroke="currentColor" stroke-linecap="round" stroke-linejoin="round" stroke-width="1.5" color="currentColor">
                <path d="M11.998 2C8.99 2 7.04 4.019 4.734 4.755c-.938.3-1.407.449-1.597.66c-.19.21-.245.519-.356 1.135c-1.19 6.596 1.41 12.694 7.61 15.068c.665.255.998.382 1.61.382s.946-.128 1.612-.383c6.199-2.373 8.796-8.471 7.606-15.067c-.111-.616-.167-.925-.357-1.136s-.658-.36-1.596-.659C16.959 4.019 15.006 2 11.998 2"></path>
                <path d="M9 13s1 0 2 2c0 0 3.177-5 6-6"></path>
            </g>
        </symbol>
        <symbol id="feed" viewBox="0 0 24 24">
            <g fill="none" stroke="currentColor" stroke-linecap="round" stroke-linejoin="round" stroke-width="1.5" color="currentColor">
                <path d="M12.992 20.5c.72 0 1-.004 1-.004c3.417-.025 5.3-.186 6.542-1.24C22 18.01 22 16.005 22 12s0-6.01-1.466-7.255S16.71 3.5 11.991 3.5s-7.078 0-8.544 1.245C2.324 5.698 2.062 7.097 2 9.5m.982 10h.01"></path>
                <path d="M2 15.735c2.493 0 4.77 2.265 4.77 4.765m3.23 0c0-4.5-4.005-8-7.955-8"></path>
            </g>
        </symbol>
        <symbol id="sitemap" viewBox="0 0 24 24">
            <path fill="none" stroke="currentColor" stroke-linecap="round" stroke-linejoin="round" stroke-width="1.5" d="M12 8v4m0 0H9c-1.886 0-2.828 0-3.414.586S5 14.114 5 16m7-4h3c1.886 0 2.828 0 3.414.586S19 14.114 19 16M2 19c0-1.414 0-2.121.44-2.56C2.878 16 3.585 16 5 16s2.121 0 2.56.44C8 16.878 8 17.585 8 19s0 2.121-.44 2.56C7.122 22 6.415 22 5 22s-2.121 0-2.56-.44C2 21.122 2 20.415 2 19m14 0c0-1.414 0-2.121.44-2.56C16.878 16 17.585 16 19 16s2.121 0 2.56.44c.44.439.44 1.146.44 2.56s0 2.121-.44 2.56c-.439.44-1.146.44-2.56.44s-2.121 0-2.56-.44C16 21.122 16 20.415 16 19M10.286 2h3.428C15.79 2 16 3.11 16 5s-.211 3-2.286 3h-3.428C8.21 8 8 6.89 8 5s.211-3 2.286-3" color="currentColor"></path>
        </symbol>
        <symbol id="contact" viewBox="0 0 24 24">
            <g fill="none" stroke="currentColor" stroke-linecap="round" stroke-linejoin="round" stroke-width="1.5" color="currentColor">
                <path d="M7.5 12h6m-6-4h3m-2 12c1.05.87 2.315 1.424 3.764 1.519c1.141.075 2.333.075 3.473 0a4 4 0 0 0 1.188-.268c.41-.167.614-.25.719-.237c.104.012.255.122.557.342c.533.388 1.204.666 2.2.643c.503-.012.755-.019.867-.208c.113-.19-.027-.452-.308-.977c-.39-.728-.636-1.561-.262-2.229c.643-.954 1.19-2.083 1.27-3.303c.043-.655.043-1.334 0-1.99A6.7 6.7 0 0 0 21.4 11"></path>
                <path d="M12.345 17.487c3.556-.234 6.388-3.08 6.62-6.653c.046-.699.046-1.423 0-2.122c-.232-3.572-3.064-6.418-6.62-6.652c-1.213-.08-2.48-.08-3.69 0c-3.556.234-6.388 3.08-6.62 6.652c-.046.7-.046 1.423 0 2.122c.084 1.302.665 2.506 1.349 3.524c.397.712.135 1.6-.279 2.377c-.298.56-.447.84-.327 1.042s.387.209.922.221c1.057.026 1.77-.271 2.336-.685c.321-.234.482-.351.593-.365c.11-.013.328.075.763.253c.392.16.846.258 1.263.286c1.21.08 2.477.08 3.69 0"></path>
            </g>
        </symbol>
        <symbol id="facebook" viewBox="0 0 24 24">
            <path fill="none" stroke="currentColor" stroke-linecap="round" stroke-linejoin="round" stroke-width="1.5" d="M6.182 10.333c-.978 0-1.182.192-1.182 1.111v1.667c0 .92.204 1.111 1.182 1.111h2.363v6.667c0 .92.205 1.111 1.182 1.111h2.364c.978 0 1.182-.192 1.182-1.111v-6.667h2.654c.741 0 .932-.135 1.136-.806l.507-1.666c.349-1.149.133-1.417-1.137-1.417h-3.16V7.556c0-.614.529-1.112 1.181-1.112h3.364c.978 0 1.182-.191 1.182-1.11V3.11C19 2.191 18.796 2 17.818 2h-3.364c-3.263 0-5.909 2.487-5.909 5.556v2.777z" color="currentColor"/>
        </symbol>
        <symbol id="instagram" viewBox="0 0 24 24">
            <g fill="none" stroke="currentColor" stroke-linecap="round" stroke-linejoin="round" stroke-width="1.5" color="currentColor">
                <path d="M2.5 12c0-4.478 0-6.718 1.391-8.109S7.521 2.5 12 2.5c4.478 0 6.718 0 8.109 1.391S21.5 7.521 21.5 12c0 4.478 0 6.718-1.391 8.109S16.479 21.5 12 21.5c-4.478 0-6.718 0-8.109-1.391S2.5 16.479 2.5 12"/>
                <path d="M16.5 12a4.5 4.5 0 1 1-9 0a4.5 4.5 0 0 1 9 0m1.008-5.5h-.01"/>
            </g>
        </symbol>
        <symbol id="threads" viewBox="0 0 24 24">
            <path fill="none" stroke="currentColor" stroke-linecap="round" stroke-linejoin="round" stroke-width="1.5" d="M19.25 8.505c-1.577-5.867-7-5.5-7-5.5s-7.5-.5-7.5 8.995s7.5 8.996 7.5 8.996s4.458.296 6.5-3.918c.667-1.858.5-5.573-6-5.573c0 0-3 0-3 2.5c0 .976 1 2 2.5 2s3.171-1.027 3.5-3c1-6-4.5-6.5-6-4" color="currentColor"/>
        </symbol>
        <symbol id="whatsapp" viewBox="0 0 24 24">
            <g fill="none" stroke="currentColor" stroke-linecap="round" stroke-linejoin="round" stroke-width="1.5" color="currentColor">
                <path d="M12 22c5.523 0 10-4.477 10-10S17.523 2 12 2S2 6.477 2 12c0 1.379.28 2.693.784 3.888c.279.66.418.99.436 1.24c.017.25-.057.524-.204 1.073L2 22l3.799-1.016c.549-.147.823-.22 1.073-.204c.25.018.58.157 1.24.436A10 10 0 0 0 12 22"/>
                <path d="m8.588 12.377l.871-1.081c.367-.456.82-.88.857-1.488c.008-.153-.1-.841-.315-2.218C9.916 7.049 9.41 7 8.973 7c-.57 0-.855 0-1.138.13c-.358.163-.725.622-.806 1.007c-.064.305-.016.515.079.935c.402 1.783 1.347 3.544 2.811 5.009c1.465 1.464 3.226 2.409 5.01 2.811c.42.095.629.143.934.079c.385-.08.844-.448 1.008-.806c.129-.283.129-.568.129-1.138c0-.438-.049-.943-.59-1.028c-1.377-.216-2.065-.323-2.218-.315c-.607.036-1.032.49-1.488.857l-1.081.87"/>
            </g>
        </symbol>
        <symbol id="tiktok" viewBox="0 0 24 24">
            <g fill="none" stroke="currentColor" stroke-linecap="round" stroke-linejoin="round" stroke-width="1.5" color="currentColor">
                <path d="M2.5 12c0-4.478 0-6.718 1.391-8.109S7.521 2.5 12 2.5c4.478 0 6.718 0 8.109 1.391S21.5 7.521 21.5 12c0 4.478 0 6.718-1.391 8.109S16.479 21.5 12 21.5c-4.478 0-6.718 0-8.109-1.391S2.5 16.479 2.5 12"/>
                <path d="M10.536 11.008c-.82-.116-2.69.075-3.606 1.77s.007 3.459.584 4.129c.569.627 2.378 1.814 4.297.655c.476-.287 1.069-.502 1.741-2.747l-.078-8.834c-.13.973.945 3.255 4.004 3.525"/>
            </g>
        </symbol>
        <symbol id="twitch" viewBox="0 0 24 24">
            <path fill="none" stroke="currentColor" stroke-linecap="round" stroke-linejoin="round" stroke-width="1.5" d="M16 7v4m-4-4v4m4-8H8c-1.886 0-2.828 0-3.414.584C4 4.167 4 5.106 4 6.984v6.576c0 .37 0 .555.025.71a2 2 0 0 0 1.662 1.657c.156.024.341.024.713.024c.093 0 .14 0 .178.006a.5.5 0 0 1 .416.414c.006.039.006.085.006.178v1.543c0 1.182 0 1.773.335 1.89c.334.117.705-.344 1.446-1.268l1.919-2.39c.147-.183.221-.275.324-.324c.102-.049.22-.049.457-.049h3.862c.818 0 1.226 0 1.594-.152c.367-.151.656-.44 1.235-1.015l.656-.655c.579-.575.867-.863 1.02-1.23c.152-.366.152-.773.152-1.587V6.985c0-1.879 0-2.818-.586-3.401C18.828 3 17.886 3 16 3" color="currentColor"/>
        </symbol>
        <symbol id="twitter" viewBox="0 0 24 24">
            <path fill="none" stroke="currentColor" stroke-linecap="round" stroke-linejoin="round" stroke-width="1.5" d="m3 21l7.548-7.548M21 3l-7.548 7.548m0 0L8 3H3l7.548 10.452m2.904-2.904L21 21h-5l-5.452-7.548" color="currentColor"/>
        </symbol>
        <symbol id="pinterest" viewBox="0 0 24 24">
            <g fill="none" stroke="currentColor" stroke-linecap="round" stroke-linejoin="round" stroke-width="1.5" color="currentColor">
                <path d="M12 11L8 21m1.974-4.428A5 5 0 1 0 7.67 14.5"/>
                <circle cx="12" cy="12" r="10"/>
            </g>
        </symbol>
        <symbol id="youtube" viewBox="0 0 24 24">
            <g fill="none" stroke="currentColor" stroke-linecap="round" stroke-linejoin="round" stroke-width="1.5" color="currentColor">
                <path d="M12 20.5c1.81 0 3.545-.179 5.153-.507c2.01-.41 3.014-.614 3.93-1.792c.917-1.179.917-2.532.917-5.238v-1.926c0-2.706 0-4.06-.917-5.238c-.916-1.178-1.92-1.383-3.93-1.792A26 26 0 0 0 12 3.5c-1.81 0-3.545.179-5.153.507c-2.01.41-3.014.614-3.93 1.792C2 6.978 2 8.331 2 11.037v1.926c0 2.706 0 4.06.917 5.238c.916 1.178 1.92 1.383 3.93 1.792c1.608.328 3.343.507 5.153.507"/>
                <path d="M15.962 12.313c-.148.606-.938 1.04-2.517 1.911c-1.718.947-2.577 1.42-3.272 1.237a1.7 1.7 0 0 1-.635-.317C9 14.709 9 13.806 9 12s0-2.709.538-3.144c.182-.147.4-.256.635-.317c.695-.183 1.554.29 3.272 1.237c1.58.87 2.369 1.305 2.517 1.911c.05.206.05.42 0 .626"/>
            </g>
        </symbol>
        <symbol id="telegram" viewBox="0 0 24 24">
            <path fill="none" stroke="currentColor" stroke-linecap="round" stroke-linejoin="round" stroke-width="1.5" d="m11.985 15.408l3.242 3.686c1.2 1.365 1.801 2.048 2.43 1.881c.628-.166.844-1.064 1.275-2.861l2.39-9.968c.665-2.768.997-4.151.259-4.834s-2.017-.175-4.575.84L5.14 8.865c-2.046.813-3.069 1.219-3.134 1.917a1 1 0 0 0 0 .214c.063.699 1.084 1.108 3.128 1.927c.925.371 1.388.557 1.72.912q.056.06.108.124c.306.38.436.88.697 1.876l.489 1.867c.253.97.38 1.456.713 1.522s.622-.336 1.201-1.141zm0 0l-.317-.33c-.362-.378-.543-.566-.543-.8s.18-.423.543-.8l3.573-3.724" color="currentColor"/>
        </symbol>
        <symbol id="linkedin" viewBox="0 0 24 24">
            <path fill="none" stroke="currentColor" stroke-linecap="round" stroke-linejoin="round" stroke-width="1.5" d="M4.5 9.5H4c-.943 0-1.414 0-1.707.293S2 10.557 2 11.5V20c0 .943 0 1.414.293 1.707S3.057 22 4 22h.5c.943 0 1.414 0 1.707-.293S6.5 20.943 6.5 20v-8.5c0-.943 0-1.414-.293-1.707S5.443 9.5 4.5 9.5m2-5.25a2.25 2.25 0 1 1-4.5 0a2.25 2.25 0 0 1 4.5 0m5.826 5.25H11.5c-.943 0-1.414 0-1.707.293S9.5 10.557 9.5 11.5V20c0 .943 0 1.414.293 1.707S10.557 22 11.5 22h.5c.943 0 1.414 0 1.707-.293S14 20.943 14 20v-3.5c0-1.657.528-3 2.088-3c.78 0 1.412.672 1.412 1.5v4.5c0 .943 0 1.414.293 1.707s.764.293 1.707.293h.499c.942 0 1.414 0 1.707-.293c.292-.293.293-.764.293-1.706L22 14c0-2.486-2.364-4.5-4.703-4.5c-1.332 0-2.52.652-3.297 1.673c0-.63 0-.945-.137-1.179a1 1 0 0 0-.358-.358c-.234-.137-.549-.137-1.179-.137" color="currentColor"/>
        </symbol>
        <symbol id="discord" viewBox="0 0 24 24">
            <g fill="none" stroke="currentColor" stroke-linecap="round" stroke-linejoin="round" stroke-width="1.5" color="currentColor">
                <path d="M7 7c3.889-1.333 6.111-1.333 10 0M7 17c3.5 1.333 6.5 1.333 10 0"/>
                <path d="M8.857 17.625C8.857 18.75 6.737 21 6.192 21c-1.633 0-3.083-1.875-3.809-3.375c-.726-1.875-.544-6.562 1.632-12.937C5.601 3.546 7.195 3.18 8.857 3L10 6m5.143 11.625c0 1.125 2.12 3.375 2.665 3.375c1.633 0 3.083-1.875 3.809-3.375c.726-1.875.544-6.562-1.632-12.937C18.399 3.546 16.805 3.18 15.143 3L14 6m-6.49 6H7.5m9 0h-.01"/>
            </g>
        </symbol>
        <symbol id="email" viewBox="0 0 24 24">
            <g fill="none" stroke="currentColor" stroke-linecap="round" stroke-linejoin="round" stroke-width="1.5" color="currentColor">
                <path d="m7 8.5l2.942 1.74c1.715 1.014 2.4 1.014 4.116 0L17 8.5"/>
                <path d="M2.016 13.476c.065 3.065.098 4.598 1.229 5.733c1.131 1.136 2.705 1.175 5.854 1.254c1.94.05 3.862.05 5.802 0c3.149-.079 4.723-.118 5.854-1.254c1.131-1.135 1.164-2.668 1.23-5.733c.02-.986.02-1.966 0-2.952c-.066-3.065-.099-4.598-1.23-5.733c-1.131-1.136-2.705-1.175-5.854-1.254a115 115 0 0 0-5.802 0c-3.149.079-4.723.118-5.854 1.254c-1.131 1.135-1.164 2.668-1.23 5.733a69 69 0 0 0 0 2.952"/>
            </g>
        </symbol>
        <symbol id="phone" viewBox="0 0 24 24">
            <path fill="none" stroke="currentColor" stroke-linecap="round" stroke-linejoin="round" stroke-width="1.5" d="M3.778 11.942C2.83 10.29 2.372 8.94 2.096 7.572c-.408-2.024.526-4.001 2.073-5.263c.654-.533 1.404-.35 1.791.343l.873 1.567c.692 1.242 1.038 1.862.97 2.52c-.069.659-.536 1.195-1.469 2.267zm0 0c1.919 3.346 4.93 6.36 8.28 8.28m0 0c1.653.948 3.002 1.406 4.37 1.682c2.024.408 4.001-.526 5.262-2.073c.534-.654.351-1.404-.342-1.791l-1.567-.873c-1.242-.692-1.862-1.038-2.52-.97c-.659.069-1.195.536-2.267 1.469zM14 6.832A6 6 0 0 1 17.168 10m-2.514-8A10.78 10.78 0 0 1 22 9.346" color="currentColor"/>
        </symbol>
        <symbol id="address" viewBox="0 0 24 24">
            <path fill="none" stroke="currentColor" stroke-linecap="round" stroke-linejoin="round" stroke-width="1.5" d="m5.253 4.196l-1.227.712c-.989.573-1.483.86-1.754 1.337C2 6.722 2 7.302 2 8.464v8.164c0 1.526 0 2.29.342 2.714c.228.282.547.472.9.535c.53.095 1.18-.282 2.478-1.035c.882-.511 1.73-1.043 2.785-.898c.48.065.937.293 1.853.748l3.813 1.896c.825.41.833.412 1.75.412H18c1.886 0 2.828 0 3.414-.599c.586-.598.586-1.562.586-3.49v-6.74c0-1.927 0-2.89-.586-3.49c-.586-.598-1.528-.598-3.414-.598h-2.079c-.917 0-.925-.002-1.75-.412L10.84 4.015C9.449 3.323 8.753 2.977 8.012 3S6.6 3.415 5.253 4.196M8 3v14.5m7-11v14" color="currentColor"/>
        </symbol>

        <symbol id="cancel" viewBox="0 0 24 24">
            <path fill="none" stroke="currentColor" stroke-linecap="round" stroke-linejoin="round" stroke-width="1.5" d="M19 5L5 19M5 5l14 14" color="currentColor"/>
        </symbol>
        <symbol id="menu" viewBox="0 0 24 24">
            <path fill="none" stroke="currentColor" stroke-linecap="round" stroke-linejoin="round" stroke-width="1.5" d="M4 5h16M4 12h16M4 19h16" color="currentColor"/>
        </symbol>
        <symbol id="search" viewBox="0 0 24 24">
            <path fill="none" stroke="currentColor" stroke-linecap="round" stroke-linejoin="round" stroke-width="1.5" d="M17.5 17.5L22 22m-2-11a9 9 0 1 0-18 0a9 9 0 0 0 18 0" color="currentColor"/>
        </symbol>
        <symbol id="copyright" viewBox="0 0 24 24">
            <g fill="none" stroke="currentColor" stroke-linecap="round" stroke-linejoin="round" stroke-width="1.5" color="currentColor">
                <path d="M22 12c0 5.523-4.477 10-10 10S2 17.523 2 12S6.477 2 12 2s10 4.477 10 10"/>
                <path d="M15 14a2 2 0 0 1-2 2h-1c-.932 0-1.398 0-1.765-.152a2 2 0 0 1-1.083-1.083C9 14.398 9 13.932 9 13v-2c0-.932 0-1.398.152-1.765a2 2 0 0 1 1.083-1.083C10.602 8 11.068 8 12 8h1a2 2 0 0 1 2 2"/>
            </g>
        </symbol>
        <symbol id="print" viewBox="0 0 24 24">
            <g fill="none" stroke="currentColor" stroke-linecap="round" stroke-linejoin="round" stroke-width="1.5" color="currentColor">
                <path d="M7.354 18c-2.123 0-3.185 0-3.94-.453a3.04 3.04 0 0 1-1.15-1.223c-.392-.77-.287-1.787-.075-3.822c.176-1.698.264-2.547.698-3.171c.285-.41.67-.745 1.121-.977C4.695 8 5.582 8 7.354 8h9.292c1.772 0 2.659 0 3.346.354c.451.232.836.567 1.121.977c.434.624.522 1.473.698 3.172c.212 2.034.317 3.052-.076 3.821a3.04 3.04 0 0 1-1.148 1.223C19.83 18 18.769 18 16.646 18M17 8V6c0-1.886 0-2.828-.586-3.414S14.886 2 13 2h-2c-1.886 0-2.828 0-3.414.586S7 4.114 7 6v2"></path>
                <path d="M13.989 16H10.01c-.685 0-1.028 0-1.32.109a1.87 1.87 0 0 0-.945.8c-.168.281-.251.642-.417 1.363c-.26 1.128-.39 1.691-.301 2.143c.117.602.484 1.112.995 1.382c.382.203.918.203 1.988.203h3.978c1.07 0 1.606 0 1.988-.203c.51-.27.878-.78.995-1.382c.089-.452-.041-1.015-.3-2.143c-.167-.72-.25-1.082-.418-1.362a1.87 1.87 0 0 0-.946-.801C15.017 16 14.674 16 13.988 16M18 12h.009"></path>
            </g>
        </symbol>
        <symbol id="arrow-left" viewBox="0 0 24 24">
            <path fill="none" stroke="currentColor" stroke-linecap="round" stroke-linejoin="round" stroke-width="1.5" d="M4 12h16M9 17s-5-3.682-5-5s5-5 5-5" color="currentColor"/>
        </symbol>
        <symbol id="arrow-right" viewBox="0 0 24 24">
            <path fill="none" stroke="currentColor" stroke-linecap="round" stroke-linejoin="round" stroke-width="1.5" d="M20 12H4m11 5s5-3.682 5-5s-5-5-5-5" color="currentColor"/>
        </symbol>
        <symbol id="arrow-down" viewBox="0 0 24 24">
            <path fill="none" stroke="currentColor" stroke-linecap="round" stroke-linejoin="round" stroke-width="1.5" d="M12 20V4m5 11s-3.682 5-5 5s-5-5-5-5" color="currentColor"/>
        </symbol>
        <symbol id="arrow-up" viewBox="0 0 24 24">
            <path fill="none" stroke="currentColor" stroke-linecap="round" stroke-linejoin="round" stroke-width="1.5" d="M12 4v16m5-11s-3.682-5-5-5s-5 5-5 5" color="currentColor"/>
        </symbol>
        <symbol id="chef" viewBox="0 0 24 24">
            <path fill="none" stroke="currentColor" stroke-linecap="round" stroke-linejoin="round" stroke-width="1.5" d="M15.398 4.41A3.601 3.601 0 0 1 21 7.405A3.6 3.6 0 0 1 17.625 11H17m-1.602-6.59a3.602 3.602 0 0 0-6.796 0m6.796 0a3.6 3.6 0 0 1 .089 2.093m-5.769-.9A3.6 3.6 0 0 0 8.602 4.41m0 0A3.601 3.601 0 0 0 3 7.405A3.6 3.6 0 0 0 6.375 11H7m10 3v-4M7 14v-4m11 4.5c-1.599-.622-3.7-1-6-1s-4.4.378-6 1M17 17a5 5 0 0 1-10 0" color="currentColor"></path>
        </symbol>
        <symbol id="cuisine" viewBox="0 0 24 24">
            <g fill="none" stroke="currentColor" stroke-linecap="round" stroke-linejoin="round" stroke-width="1.5" color="currentColor">
                <path d="M22 12c0-5.523-4.477-10-10-10S2 6.477 2 12s4.477 10 10 10s10-4.477 10-10"></path>
                <path d="M20 5.699c-.935.067-2.132.43-2.962 1.504c-1.5 1.94-2.999 2.103-3.999 1.456c-1.5-.97-.239-2.543-1.999-3.397C9.893 4.705 9.733 3.19 10.372 2M2 11c.763.662 1.83 1.268 3.089 1.268c2.6 0 3.12.497 3.12 2.484s0 1.987.52 3.477c.338.97.456 1.938-.218 2.771M22 13.452c-.887-.51-2-.721-3.127.088c-2.155 1.55-3.642.266-4.311 1.549C13.577 16.977 17.096 17.57 14 22"></path>
            </g>
        </symbol>
        <symbol id="difficulty" viewBox="0 0 24 24">
            <path fill="none" stroke="currentColor" stroke-linecap="round" stroke-linejoin="round" stroke-width="1.5" d="M7 17v-1c0-.943 0-1.414-.293-1.707S5.943 14 5 14s-1.414 0-1.707.293S3 15.057 3 16v1c0 .943 0 1.414.293 1.707S4.057 19 5 19s1.414 0 1.707-.293S7 17.943 7 17m7 0v-5c0-.943 0-1.414-.293-1.707S12.943 10 12 10s-1.414 0-1.707.293S10 11.057 10 12v5c0 .943 0 1.414.293 1.707S11.057 19 12 19s1.414 0 1.707-.293S14 17.943 14 17m7 0V8c0-.943 0-1.414-.293-1.707S19.943 6 19 6s-1.414 0-1.707.293S17 7.057 17 8v9c0 .943 0 1.414.293 1.707S18.057 19 19 19s1.414 0 1.707-.293S21 17.943 21 17" color="currentColor"></path>
        </symbol>
        <symbol id="yield" viewBox="0 0 24 24">
            <path fill="none" stroke="currentColor" stroke-linecap="round" stroke-linejoin="round" stroke-width="1.5" d="M20.774 18c.75 0 1.345-.471 1.88-1.13c1.096-1.35-.703-2.43-1.389-2.957c-.697-.537-1.476-.842-2.265-.913m-1-2a2.5 2.5 0 0 0 0-5M3.226 18c-.75 0-1.345-.471-1.88-1.13c-1.096-1.35.703-2.43 1.389-2.957C3.432 13.376 4.21 13.07 5 13m.5-2a2.5 2.5 0 0 1 0-5m2.584 9.111c-1.022.632-3.701 1.922-2.07 3.536C6.813 19.436 7.7 20 8.817 20h6.368c1.117 0 2.004-.564 2.801-1.353c1.632-1.614-1.047-2.904-2.069-3.536a7.46 7.46 0 0 0-7.832 0M15.5 7.5a3.5 3.5 0 1 1-7 0a3.5 3.5 0 0 1 7 0" color="currentColor"></path>
        </symbol>
        <symbol id="total-time" viewBox="0 0 24 24">
            <g fill="none" stroke="currentColor" stroke-linecap="round" stroke-linejoin="round" stroke-width="1.5" color="currentColor">
                <path d="M5 19.25v2m14-2v2m-17-10c0-2.828 0-4.243.879-5.121C3.757 5.25 5.172 5.25 8 5.25h8c2.828 0 4.243 0 5.121.879C22 7.007 22 8.422 22 11.25v2c0 2.828 0 4.243-.879 5.121c-.878.879-2.293.879-5.121.879H8c-2.828 0-4.243 0-5.121-.879C2 17.493 2 16.078 2 13.25zm8-6l-.541-1.387a2 2 0 0 0-.058-.139c-.016-.034-.034-.065-.07-.127c-.182-.315-.294-.484-.49-.596c-.584-.335-2.098-.335-2.682 0c-.196.112-.308.281-.49.596c-.036.062-.054.093-.07.127s-.03.07-.058.14L5 5.25"></path>
                <path d="M6.506 10.24v4.015m10.993-3.992v3.97M9.49 10.99h.019m-.019 2.506h.019m3.5.737h1.477a.5.5 0 0 0 .5-.5v-2.97a.5.5 0 0 0-.5-.5h-1.477a.5.5 0 0 0-.5.5v2.97a.5.5 0 0 0 .5.5"></path>
            </g>
        </symbol>
        <symbol id="prep-time" viewBox="0 0 24 24">
            <path fill="none" stroke="currentColor" stroke-linecap="round" stroke-linejoin="round" stroke-width="1.5" d="M18 13a4 4 0 1 0-2.225-7.325M6 13a4 4 0 1 1 2.225-7.325m7.55 0a4.002 4.002 0 0 0-7.55 0m7.55 0A4 4 0 0 1 15.874 8m-6.41-1a4 4 0 0 0-1.24-1.325M6 17.5c1.599-.622 3.7-1 6-1s4.401.378 6 1M5 21c1.866-.622 4.316-1 7-1s5.134.378 7 1m-1-9v8M6 12v8" color="currentColor"></path>
        </symbol>
        <symbol id="cook-time" viewBox="0 0 24 24">
            <path fill="none" stroke="currentColor" stroke-linecap="round" stroke-linejoin="round" stroke-width="1.5" d="M13.856 22c12.222-3 5.378-15-2.933-20c-.978 3.5-2.445 4.5-5.378 8c-3.884 4.634-1.955 10 3.422 12c-.815-1-2.917-3.1-1.467-6c.5-1 1.5-2 1-4c.978.5 3 1 3.5 3.5c.815-1 1.66-3.1.878-5.5c6.122 4.5 3.622 9 .978 12" color="currentColor"></path>
        </symbol>
        <symbol id="category" viewBox="0 0 24 24">
            <g fill="none" stroke="currentColor" stroke-linecap="round" stroke-linejoin="round" stroke-width="1.5" color="currentColor">
                <path d="M3.538 17h7.512m7.513 0h2.504M12.535 5a2.5 2.5 0 1 1 0 5a2.5 2.5 0 0 1 0-5m0 0c.167-.5.9-1.6 2.5-2"></path>
                <path d="M10.02 8.015c-5.949 2.249-8.348 3.287-7.984 4.031c1.979.935 5.615.695 9.335.555c1.024-.038 2.034.47 2.266 1.477c.164.711.208 1.332.531 1.726c.185.226.5.302.782.229c.76-.2 1.075-1.049 1.45-2.54c.073-.29.177-.603.459-.7c1.26-.438 5.139.526 5.139-1.25c-.063-1.85-.736-3.003-2.899-4.718a3.5 3.5 0 0 0-2.456-.754c-.926.074-1.357.195-1.632.432"></path>
                <path d="m2.013 11.993l.975 4.305c.5 2.254.75 3.381 1.572 4.042c.823.66 1.977.66 4.285.66h8.578c1.722 0 2.583 0 3.155-.518s.656-1.375.825-3.09l.59-5.758"></path>
            </g>
        </symbol>
        <symbol id="dietary" viewBox="0 0 24 24">
            <g fill="none" stroke="currentColor" stroke-linecap="round" stroke-linejoin="round" stroke-width="1.5" color="currentColor">
                <path d="M9 13h.8c.63 0 .945 0 1.198.15c.254.149.395.418.676.956L13.191 17l2.095-6l1.516 2.894c.282.538.422.807.676.957c.253.149.568.149 1.198.149H20"></path>
                <path d="M20.5 12c-.768-3.585-3.776-6.961-5.976-9.028a3.53 3.53 0 0 0-4.864 0C7.12 5.36 3.5 9.494 3.5 13.678C3.5 17.78 6.754 22 12.092 22c3.393 0 5.944-1.704 7.352-4"></path>
            </g>
        </symbol>
    </defs>
</svg>