<svg class="d-none" version="1.1" xmlns="http://www.w3.org/2000/svg" xmlns:xlink="http://www.w3.org/1999/xlink">
    <defs>
        <!-- Core Navigation Icons - Filled Rounded Style -->
        <symbol id="home-base" viewBox="0 0 32 32">
            <g fill="currentColor">
                <path d="M16 3.5l12 10v15c0 1.1-.9 2-2 2H6c-1.1 0-2-.9-2-2v-15l12-10z" opacity="0.2"/>
                <path d="M28 13.5l-12-10-12 10v15c0 1.1.9 2 2 2h20c1.1 0 2-.9 2-2v-15zm-14 15h-4v-8h4v8zm6 0h-4v-12h4v12z"/>
                <circle cx="16" cy="22" r="2"/>
            </g>
        </symbol>

        <symbol id="memo-pad" viewBox="0 0 32 32">
            <g fill="currentColor">
                <rect x="6" y="4" width="20" height="24" rx="3" opacity="0.2"/>
                <path d="M23 2H9c-1.7 0-3 1.3-3 3v22c0 1.7 1.3 3 3 3h14c1.7 0 3-1.3 3-3V5c0-1.7-1.3-3-3-3zm-1 24H10V6h12v20z"/>
                <rect x="12" y="10" width="8" height="2" rx="1"/>
                <rect x="12" y="14" width="6" height="2" rx="1"/>
                <rect x="12" y="18" width="8" height="2" rx="1"/>
            </g>
        </symbol>

        <symbol id="info-badge" viewBox="0 0 32 32">
            <g fill="currentColor">
                <circle cx="16" cy="16" r="14" opacity="0.15"/>
                <path d="M16 2C8.3 2 2 8.3 2 16s6.3 14 14 14 14-6.3 14-14S23.7 2 16 2zm0 4c1.1 0 2 .9 2 2s-.9 2-2 2-2-.9-2-2 .9-2 2-2zm4 18h-8v-2h2v-8h-2v-2h6v10h2v2z"/>
                <rect x="14" y="8" width="4" height="2" rx="2"/>
            </g>
        </symbol>

        <symbol id="star-picker" viewBox="0 0 32 32">
            <g fill="currentColor">
                <path d="M16 2l4.12 8.36L29 12l-6.5 6.34L24 27l-8-4.21L8 27l1.5-8.66L3 12l8.88-1.64L16 2z" opacity="0.2"/>
                <path d="M23.4 10.2l-6.3-.9L16 3.8l-1.1 5.5-6.3.9 4.5 4.4-1.1 6.3 5.6-2.9 5.6 2.9-1.1-6.3 4.5-4.4zm-7.4 12l-3.8 2 .7-4.3-3.1-3 4.3-.6L16 12l1.9 4.3 4.3.6-3.1 3 .7 4.3-3.8-2z"/>
                <circle cx="16" cy="16" r="3" opacity="0.4"/>
            </g>
        </symbol>

        <symbol id="grid-tiles" viewBox="0 0 32 32">
            <g fill="currentColor">
                <rect x="3" y="3" width="10" height="10" rx="2" opacity="0.3"/>
                <rect x="19" y="3" width="10" height="10" rx="2" opacity="0.3"/>
                <rect x="3" y="19" width="10" height="10" rx="2" opacity="0.3"/>
                <rect x="19" y="19" width="10" height="10" rx="2" opacity="0.3"/>
                <path d="M11 3H5c-1.1 0-2 .9-2 2v6c0 1.1.9 2 2 2h6c1.1 0 2-.9 2-2V5c0-1.1-.9-2-2-2zm0 8H5V5h6v6zm16-8h-6c-1.1 0-2 .9-2 2v6c0 1.1.9 2 2 2h6c1.1 0 2-.9 2-2V5c0-1.1-.9-2-2-2zm0 8h-6V5h6v6zM11 19H5c-1.1 0-2 .9-2 2v6c0 1.1.9 2 2 2h6c1.1 0 2-.9 2-2v-6c0-1.1-.9-2-2-2zm0 8H5v-6h6v6zm16-8h-6c-1.1 0-2 .9-2 2v6c0 1.1.9 2 2 2h6c1.1 0 2-.9 2-2v-6c0-1.1-.9-2-2-2zm0 8h-6v-6h6v6z"/>
            </g>
        </symbol>

        <symbol id="creative-tools" viewBox="0 0 32 32">
            <g fill="currentColor">
                <circle cx="16" cy="16" r="12" opacity="0.1"/>
                <path d="M16 2C8.3 2 2 8.3 2 16s6.3 14 14 14 14-6.3 14-14S23.7 2 16 2zm6 14.5c-.8 1.4-2.1 2.5-3.6 3.1l1.1 3.4c.2.6-.1 1.3-.7 1.5-.6.2-1.3-.1-1.5-.7l-1.1-3.4c-.7.1-1.4.1-2.2 0l-1.1 3.4c-.2.6-.9.9-1.5.7-.6-.2-.9-.9-.7-1.5l1.1-3.4c-1.5-.6-2.8-1.7-3.6-3.1-.4-.7-.1-1.6.6-2 .7-.4 1.6-.1 2 .6.6 1 1.6 1.8 2.9 1.8s2.3-.8 2.9-1.8c.4-.7 1.3-1 2-.6.7.4 1 1.3.6 2z"/>
                <circle cx="12" cy="12" r="2"/>
                <circle cx="20" cy="12" r="2"/>
            </g>
        </symbol>

        <symbol id="compass-explore" viewBox="0 0 32 32">
            <g fill="currentColor">
                <circle cx="16" cy="16" r="14" opacity="0.15"/>
                <path d="M16 2C8.3 2 2 8.3 2 16s6.3 14 14 14 14-6.3 14-14S23.7 2 16 2zm8 14c0 4.4-3.6 8-8 8s-8-3.6-8-8 3.6-8 8-8 8 3.6 8 8z"/>
                <path d="M20.5 11.5l-3 8-8 3 3-8 8-3z" opacity="0.4"/>
                <circle cx="16" cy="16" r="2"/>
                <path d="M22 10l-4 10-10 4 4-10 10-4zm-6 8l2-5-5 2 3 3z"/>
            </g>
        </symbol>

        <symbol id="user-profile" viewBox="0 0 32 32">
            <g fill="currentColor">
                <circle cx="16" cy="11" r="6" opacity="0.3"/>
                <path d="M16 4c3.9 0 7 3.1 7 7s-3.1 7-7 7-7-3.1-7-7 3.1-7 7-7zm0 2c-2.8 0-5 2.2-5 5s2.2 5 5 5 5-2.2 5-5-2.2-5-5-5z"/>
                <path d="M16 20c-6.6 0-12 4-12 8v2h24v-2c0-4-5.4-8-12-8zm-8 8c1.3-1.5 4.7-3 8-3s6.7 1.5 8 3H8z" opacity="0.3"/>
                <path d="M28 26v2c0 1.1-.9 2-2 2H6c-1.1 0-2-.9-2-2v-2c0-4.4 5.4-8 12-8s12 3.6 12 8zm-2 2H6v-2c0-2.4 3.6-6 10-6s10 3.6 10 6v2z"/>
            </g>
        </symbol>

        <!-- Modern Content Icons -->
        <symbol id="book-open" viewBox="0 0 32 32">
            <g fill="currentColor">
                <path d="M4 8c0-2.2 1.8-4 4-4h6v20H8c-2.2 0-4-1.8-4-4V8z" opacity="0.2"/>
                <path d="M28 8c0-2.2-1.8-4-4-4h-6v20h6c2.2 0 4-1.8 4-4V8z" opacity="0.2"/>
                <path d="M2 8c0-3.3 2.7-6 6-6h6c1.1 0 2 .9 2 2s-.9 2-2 2H8c-1.1 0-2 .9-2 2v12c0 1.1.9 2 2 2h6c1.1 0 2 .9 2 2s-.9 2-2 2H8c-3.3 0-6-2.7-6-6V8zm28 0c0-3.3-2.7-6-6-6h-6c-1.1 0-2 .9-2 2s.9 2 2 2h6c1.1 0 2 .9 2 2v12c0 1.1-.9 2-2 2h-6c-1.1 0-2 .9-2 2s.9 2 2 2h6c3.3 0 6-2.7 6-6V8z"/>
                <line x1="16" y1="6" x2="16" y2="26" stroke="currentColor" stroke-width="2"/>
            </g>
        </symbol>

        <symbol id="article-doc" viewBox="0 0 32 32">
            <g fill="currentColor">
                <path d="M20 2H8c-2.2 0-4 1.8-4 4v20c0 2.2 1.8 4 4 4h16c2.2 0 4-1.8 4-4V8l-8-6z" opacity="0.2"/>
                <path d="M28 8l-8-6H8c-2.2 0-4 1.8-4 4v20c0 2.2 1.8 4 4 4h16c2.2 0 4-1.8 4-4V8zm-2 18c0 1.1-.9 2-2 2H8c-1.1 0-2-.9-2-2V6c0-1.1.9-2 2-2h10v6h8v14z"/>
                <rect x="10" y="12" width="12" height="2" rx="1"/>
                <rect x="10" y="16" width="8" height="2" rx="1"/>
                <rect x="10" y="20" width="10" height="2" rx="1"/>
                <path d="M20 2v6h6l-6-6z" opacity="0.4"/>
            </g>
        </symbol>

        <symbol id="help-circle" viewBox="0 0 32 32">
            <g fill="currentColor">
                <circle cx="16" cy="16" r="14" opacity="0.15"/>
                <path d="M16 2C8.3 2 2 8.3 2 16s6.3 14 14 14 14-6.3 14-14S23.7 2 16 2zm0 26c-6.6 0-12-5.4-12-12S9.4 4 16 4s12 5.4 12 12-5.4 12-12 12z"/>
                <path d="M12 12c0-2.2 1.8-4 4-4s4 1.8 4 4c0 2-2 3-2 5" stroke="currentColor" stroke-width="2" fill="none" stroke-linecap="round"/>
                <circle cx="16" cy="22" r="2"/>
            </g>
        </symbol>

        <symbol id="shield-check" viewBox="0 0 32 32">
            <g fill="currentColor">
                <path d="M16 2l12 4v10c0 7-5 13-12 16C9 29 4 23 4 16V6l12-4z" opacity="0.2"/>
                <path d="M28 6l-12-4L4 6v10c0 7.7 5.5 14.4 12 16 6.5-1.6 12-8.3 12-16V6zm-2 10c0 6.2-4.3 11.4-10 12.8C10.3 27.4 6 22.2 6 16V7.2l10-3.3 10 3.3V16z"/>
                <path d="M12 16l3 3 7-7" stroke="currentColor" stroke-width="3" fill="none" stroke-linecap="round" stroke-linejoin="round"/>
            </g>
        </symbol>

        <!-- Social Media Icons - Geometric Style -->
        <symbol id="social-facebook" viewBox="0 0 32 32">
            <g fill="currentColor">
                <rect x="2" y="2" width="28" height="28" rx="6" opacity="0.2"/>
                <path d="M28 6c0-2.2-1.8-4-4-4H8C5.8 2 4 3.8 4 6v20c0 2.2 1.8 4 4 4h8V20h-3v-4h3v-2c0-3.3 2.7-6 6-6h3v4h-3c-.6 0-1 .4-1 1v3h4l-1 4h-3v10h4c2.2 0 4-1.8 4-4V6z"/>
                <rect x="18" y="12" width="4" height="2"/>
            </g>
        </symbol>

        <symbol id="social-instagram" viewBox="0 0 32 32">
            <g fill="currentColor">
                <rect x="2" y="2" width="28" height="28" rx="8" opacity="0.2"/>
                <path d="M24 2H8C4.7 2 2 4.7 2 8v16c0 3.3 2.7 6 6 6h16c3.3 0 6-2.7 6-6V8c0-3.3-2.7-6-6-6zm4 22c0 2.2-1.8 4-4 4H8c-2.2 0-4-1.8-4-4V8c0-2.2 1.8-4 4-4h16c2.2 0 4 1.8 4 4v16z"/>
                <circle cx="16" cy="16" r="6" fill="none" stroke="currentColor" stroke-width="2"/>
                <circle cx="23" cy="9" r="2"/>
            </g>
        </symbol>

        <symbol id="social-threads" viewBox="0 0 32 32">
            <g fill="currentColor">
                <circle cx="16" cy="16" r="14" opacity="0.15"/>
                <path d="M16 2C8.3 2 2 8.3 2 16s6.3 14 14 14 14-6.3 14-14S23.7 2 16 2zm8 14c0 4.4-3.6 8-8 8s-8-3.6-8-8 3.6-8 8-8 8 3.6 8 8z"/>
                <path d="M12 12c0-2.2 1.8-4 4-4 1.5 0 2.8.8 3.5 2" fill="none" stroke="currentColor" stroke-width="2" stroke-linecap="round"/>
                <path d="M20 16c0 2.2-1.8 4-4 4-1.5 0-2.8-.8-3.5-2" fill="none" stroke="currentColor" stroke-width="2" stroke-linecap="round"/>
                <circle cx="16" cy="14" r="2" opacity="0.4"/>
            </g>
        </symbol>

        <symbol id="social-whatsapp" viewBox="0 0 32 32">
            <g fill="currentColor">
                <circle cx="16" cy="16" r="14" opacity="0.15"/>
                <path d="M16 2C8.3 2 2 8.3 2 16c0 2.8.8 5.4 2.2 7.6L2 30l6.4-2.2C10.6 29.2 13.2 30 16 30c7.7 0 14-6.3 14-14S23.7 2 16 2zm0 26c-2.4 0-4.8-.7-6.8-2l-4.2 1.4 1.4-4.2C4.7 20.8 4 18.4 4 16c0-6.6 5.4-12 12-12s12 5.4 12 12-5.4 12-12 12z"/>
                <path d="M12 11c-.3 0-.6.1-.8.4-.5.6-1.2 1.4-1.2 3.1 0 1.8 1.3 3.5 1.5 3.8.2.3 2.8 4.3 6.8 6 3.4 1.4 4 1.1 4.7 1 .8-.1 2.5-1 2.9-2s.4-1.8.3-2c-.1-.2-.3-.3-.6-.5s-1.5-.7-1.7-.8c-.2-.1-.4-.1-.6.1-.2.2-.8 1-.9 1.2-.1.2-.3.3-.5.2-.2-.1-1-.4-1.9-1.2-.7-.6-1.2-1.4-1.3-1.6-.1-.2 0-.3.1-.4.1-.1.2-.2.3-.4.1-.1.1-.2.2-.4.1-.2 0-.3 0-.4-.1-.1-.6-1.5-.8-2-.2-.5-.4-.4-.6-.4z"/>
            </g>
        </symbol>

        <symbol id="social-tiktok" viewBox="0 0 32 32">
            <g fill="currentColor">
                <rect x="2" y="2" width="28" height="28" rx="8" opacity="0.2"/>
                <path d="M24 2H8C4.7 2 2 4.7 2 8v16c0 3.3 2.7 6 6 6h16c3.3 0 6-2.7 6-6V8c0-3.3-2.7-6-6-6zm4 22c0 2.2-1.8 4-4 4H8c-2.2 0-4-1.8-4-4V8c0-2.2 1.8-4 4-4h16c2.2 0 4 1.8 4 4v16z"/>
                <path d="M17 8c0-1 .5-2 1.5-2.5 1-.5 2-.5 2.5 0 .5.5 1 1 1 2v8c0 2-1.6 3.6-3.6 3.6S15 17.4 15 15.4c0-1.2.6-2.3 1.5-3L17 8z"/>
                <circle cx="18" cy="15" r="3" opacity="0.4"/>
            </g>
        </symbol>

        <!-- Action Icons - Minimal Line Style -->
        <symbol id="close-x" viewBox="0 0 32 32">
            <g fill="currentColor">
                <circle cx="16" cy="16" r="14" opacity="0.1"/>
                <path d="M22 10L10 22M10 10l12 12" stroke="currentColor" stroke-width="3" stroke-linecap="round"/>
            </g>
        </symbol>

        <symbol id="menu-bars" viewBox="0 0 32 32">
            <g fill="currentColor">
                <rect x="4" y="7" width="24" height="3" rx="1.5"/>
                <rect x="4" y="14.5" width="24" height="3" rx="1.5"/>
                <rect x="4" y="22" width="24" height="3" rx="1.5"/>
            </g>
        </symbol>

        <symbol id="search-lens" viewBox="0 0 32 32">
            <g fill="currentColor">
                <circle cx="14" cy="14" r="10" opacity="0.15"/>
                <circle cx="14" cy="14" r="10" fill="none" stroke="currentColor" stroke-width="3"/>
                <path d="M22 22l6 6" stroke="currentColor" stroke-width="3" stroke-linecap="round"/>
                <circle cx="14" cy="14" r="4" opacity="0.3"/>
            </g>
        </symbol>

        <!-- Contact Icons -->
        <symbol id="email-envelope" viewBox="0 0 32 32">
            <g fill="currentColor">
                <rect x="2" y="8" width="28" height="16" rx="3" opacity="0.2"/>
                <path d="M29 8H3c-1.7 0-3 1.3-3 3v14c0 1.7 1.3 3 3 3h26c1.7 0 3-1.3 3-3V11c0-1.7-1.3-3-3-3zm1 17c0 .6-.4 1-1 1H3c-.6 0-1-.4-1-1V11c0-.6.4-1 1-1h26c.6 0 1 .4 1 1v14z"/>
                <path d="M16 18l14-10H2l14 10z" opacity="0.4"/>
                <path d="M30 8L16 18 2 8" fill="none" stroke="currentColor" stroke-width="2" stroke-linecap="round"/>
            </g>
        </symbol>

        <symbol id="phone-call" viewBox="0 0 32 32">
            <g fill="currentColor">
                <path d="M28 20.5c-1.6 0-3.1-.3-4.5-.8-.4-.1-.8 0-1.1.2l-2.8 2.8c-4.3-2.2-7.8-5.7-10-10l2.8-2.8c.3-.3.4-.7.2-1.1-.5-1.4-.8-2.9-.8-4.5C12.5 3.1 11.4 2 10.2 2H4.8C3.6 2 2.5 3.1 2.5 4.3 2.5 19.1 14.9 31.5 28 31.5c1.2 0 2.3-1.1 2.3-2.3v-5.4c0-1.2-1.1-2.3-2.3-2.3z" opacity="0.2"/>
                <path d="M28 22.5c-1.4 0-2.7-.2-4-.7-.5-.2-1.1-.1-1.5.3l-2.4 2.4c-3.8-1.9-6.9-5-8.8-8.8l2.4-2.4c.4-.4.5-1 .3-1.5-.5-1.3-.7-2.6-.7-4C13.3 4.6 11.7 3 9.9 3H5.1C3.3 3 1.7 4.6 1.7 6.4 1.7 19.7 13.3 31.3 26.6 31.3c1.8 0 3.4-1.6 3.4-3.4v-4.8c0-1.8-1.6-3.4-3.4-3.4z"/>
            </g>
        </symbol>

        <symbol id="location-pin" viewBox="0 0 32 32">
            <g fill="currentColor">
                <path d="M16 2C11.6 2 8 5.6 8 10c0 6 8 18 8 18s8-12 8-18c0-4.4-3.6-8-8-8z" opacity="0.2"/>
                <path d="M16 4C12.7 4 10 6.7 10 10c0 5.3 6 16 6 16s6-10.7 6-16c0-3.3-2.7-6-6-6zm0 9c-1.7 0-3-1.3-3-3s1.3-3 3-3 3 1.3 3 3-1.3 3-3 3z"/>
                <circle cx="16" cy="10" r="4" opacity="0.4"/>
            </g>
        </symbol>

        <!-- Arrow Navigation - Bold Style -->
        <symbol id="arrow-left-bold" viewBox="0 0 32 32">
            <g fill="currentColor">
                <path d="M22 8l-8 8 8 8v-6h8v-4h-8V8z"/>
                <circle cx="8" cy="16" r="6" opacity="0.3"/>
            </g>
        </symbol>

        <symbol id="arrow-right-bold" viewBox="0 0 32 32">
            <g fill="currentColor">
                <path d="M10 24l8-8-8-8v6H2v4h8v6z"/>
                <circle cx="24" cy="16" r="6" opacity="0.3"/>
            </g>
        </symbol>

        <symbol id="arrow-up-bold" viewBox="0 0 32 32">
            <g fill="currentColor">
                <path d="M8 22l8-8 8 8h-6v8h-4v-8H8z"/>
                <circle cx="16" cy="8" r="6" opacity="0.3"/>
            </g>
        </symbol>

        <symbol id="arrow-down-bold" viewBox="0 0 32 32">
            <g fill="currentColor">
                <path d="M24 10l-8 8-8-8h6V2h4v8h6z"/>
                <circle cx="16" cy="24" r="6" opacity="0.3"/>
            </g>
        </symbol>

        <!-- Recipe/Cooking Icons - Modern Filled Style -->
        <symbol id="chef-hat-modern" viewBox="0 0 32 32">
            <g fill="currentColor">
                <path d="M16 4c-2.8 0-5.2 1.5-6.5 3.7C8.6 7.5 8 8.2 8 9c0 .8.6 1.5 1.5 1.7C9.8 12.5 10 14.2 10 16v8c0 2.2 1.8 4 4 4h8c2.2 0 4-1.8 4-4v-8c0-1.8.2-3.5.5-5.3.9-.2 1.5-.9 1.5-1.7 0-.8-.6-1.5-1.5-1.7C25.2 5.5 22.8 4 20 4s-5.2 1.5-6.5 3.7c-.3-.1-.6-.1-1 0C11.2 5.5 8.8 4 16 4z" opacity="0.2"/>
                <path d="M24 8c0-2.2-1.8-4-4-4s-4 1.8-4 4c0-.8-.7-1.5-1.5-1.5S13 7.2 13 8c0-2.2-1.8-4-4-4S5 5.8 5 8c0 1.1.9 2 2 2 0 2 0 4 0 6v8c0 2.2 1.8 4 4 4h12c2.2 0 4-1.8 4-4v-8c0-2 0-4 0-6 1.1 0 2-.9 2-2z"/>
                <rect x="11" y="18" width="2" height="6" rx="1"/>
                <rect x="15" y="16" width="2" height="8" rx="1"/>
                <rect x="19" y="18" width="2" height="6" rx="1"/>
            </g>
        </symbol>

        <symbol id="cuisine-globe" viewBox="0 0 32 32">
            <g fill="currentColor">
                <circle cx="16" cy="16" r="14" opacity="0.15"/>
                <path d="M16 2C8.3 2 2 8.3 2 16s6.3 14 14 14 14-6.3 14-14S23.7 2 16 2zm0 26c-6.6 0-12-5.4-12-12S9.4 4 16 4s12 5.4 12 12-5.4 12-12 12z"/>
                <path d="M8 12c2 0 4-1 6-1s4 1 6 1 4-1 6-1M8 20c2 0 4 1 6 1s4-1 6-1 4 1 6 1" stroke="currentColor" stroke-width="2" fill="none" stroke-linecap="round"/>
                <circle cx="12" cy="8" r="2" opacity="0.4"/>
                <circle cx="20" cy="24" r="2" opacity="0.4"/>
            </g>
        </symbol>

        <symbol id="difficulty-bars" viewBox="0 0 32 32">
            <g fill="currentColor">
                <rect x="4" y="20" width="6" height="8" rx="2" opacity="0.5"/>
                <rect x="13" y="16" width="6" height="12" rx="2" opacity="0.7"/>
                <rect x="22" y="12" width="6" height="16" rx="2"/>
                <circle cx="7" cy="18" r="2"/>
                <circle cx="16" cy="14" r="2"/>
                <circle cx="25" cy="10" r="2"/>
            </g>
        </symbol>

        <symbol id="serving-people" viewBox="0 0 32 32">
            <g fill="currentColor">
                <circle cx="12" cy="10" r="4" opacity="0.3"/>
                <circle cx="20" cy="10" r="4" opacity="0.3"/>
                <path d="M12 16c-4.4 0-8 2.7-8 6v4c0 1.1.9 2 2 2h12c1.1 0 2-.9 2-2v-4c0-3.3-3.6-6-8-6z" opacity="0.2"/>
                <path d="M20 16c-4.4 0-8 2.7-8 6v4c0 1.1.9 2 2 2h12c1.1 0 2-.9 2-2v-4c0-3.3-3.6-6-8-6z" opacity="0.2"/>
                <circle cx="12" cy="8" r="6"/>
                <circle cx="20" cy="8" r="6"/>
                <path d="M12 18c-5.5 0-10 3.4-10 7.5V28h20v-2.5c0-4.1-4.5-7.5-10-7.5zM20 18c-5.5 0-10 3.4-10 7.5V28h20v-2.5c0-4.1-4.5-7.5-10-7.5z"/>
            </g>
        </symbol>

        <symbol id="time-clock" viewBox="0 0 32 32">
            <g fill="currentColor">
                <circle cx="16" cy="16" r="14" opacity="0.15"/>
                <path d="M16 2C8.3 2 2 8.3 2 16s6.3 14 14 14 14-6.3 14-14S23.7 2 16 2zm0 26c-6.6 0-12-5.4-12-12S9.4 4 16 4s12 5.4 12 12-5.4 12-12 12z"/>
                <path d="M16 8v8l6 4" stroke="currentColor" stroke-width="3" fill="none" stroke-linecap="round"/>
                <circle cx="16" cy="16" r="2"/>
                <rect x="15" y="2" width="2" height="4" rx="1"/>
                <rect x="15" y="26" width="2" height="4" rx="1"/>
                <rect x="2" y="15" width="4" height="2" rx="1"/>
                <rect x="26" y="15" width="4" height="2" rx="1"/>
            </g>
        </symbol>

    </defs>
</svg>